<?xml version="1.0" standalone="no"?>
<!DOCTYPE svg PUBLIC "-//W3C//DTD SVG 20010904//EN"
 "http://www.w3.org/TR/2001/REC-SVG-20010904/DTD/svg10.dtd">
<svg version="1.0" xmlns="http://www.w3.org/2000/svg"
 width="154.000000pt" height="154.000000pt" viewBox="0 0 154.000000 154.000000"
 preserveAspectRatio="xMidYMid meet">
<metadata>
Created by potrace 1.14, written by Peter Selinger 2001-2017
</metadata>
<g transform="translate(0.000000,154.000000) scale(0.100000,-0.100000)"
fill="#000000" stroke="none">
<path d="M640 1525 c-308 -59 -533 -266 -612 -564 -28 -105 -28 -277 0 -383
72 -270 277 -476 548 -549 110 -30 278 -30 388 0 269 72 476 280 548 550 28
105 28 277 0 383 -55 205 -190 379 -376 482 -136 77 -344 110 -496 81z m266
-56 c209 -38 405 -189 499 -384 100 -208 100 -424 -2 -635 -38 -79 -59 -108
-132 -180 -71 -72 -102 -95 -181 -134 -110 -54 -201 -76 -320 -76 -119 0 -210
22 -320 76 -79 39 -109 62 -180 133 -94 95 -142 174 -182 301 -33 108 -33 292
0 400 79 252 280 442 526 495 76 17 213 19 292 4z"/>
<path d="M670 1445 c0 -4 7 -19 15 -36 14 -27 14 -32 0 -51 -8 -13 -15 -27
-15 -33 0 -5 9 3 19 19 l20 30 12 -27 c7 -15 18 -27 26 -27 10 0 9 9 -6 38
-19 37 -19 38 1 65 23 32 14 37 -12 5 l-17 -22 -7 22 c-6 19 -36 33 -36 17z"/>
<path d="M790 1385 c0 -37 4 -65 10 -65 6 0 10 28 10 65 0 37 -4 65 -10 65 -6
0 -10 -28 -10 -65z"/>
<path d="M850 1385 c0 -51 3 -65 15 -65 12 0 15 14 15 65 0 51 -3 65 -15 65
-12 0 -15 -14 -15 -65z"/>
<path d="M480 1382 c0 -21 53 -102 67 -102 11 0 7 13 -16 52 -28 49 -51 72
-51 50z"/>
<path d="M442 1343 c-2 -32 -15 -43 -27 -23 -7 12 -45 14 -45 3 0 -5 14 -16
30 -25 23 -13 30 -25 31 -50 2 -30 2 -31 6 -5 4 27 17 35 28 17 7 -12 45 -14
45 -2 0 4 -13 14 -29 24 -23 13 -31 25 -34 55 -3 36 -4 36 -5 6z"/>
<path d="M1072 1309 c-28 -49 -33 -77 -12 -64 18 11 60 99 52 107 -6 6 -22
-12 -40 -43z"/>
<path d="M689 1290 c-420 -64 -591 -589 -290 -890 80 -80 162 -123 275 -146
185 -38 387 37 507 188 147 186 150 462 5 649 l-34 44 32 40 31 40 -42 -33
c-23 -18 -44 -28 -47 -23 -3 5 -31 26 -62 47 -107 70 -251 102 -375 84z m212
-46 c172 -50 300 -181 344 -351 43 -163 -4 -340 -122 -464 -186 -195 -496
-201 -694 -12 -155 148 -194 386 -94 582 55 110 183 213 304 247 66 18 197 17
262 -2z"/>
<path d="M625 760 l0 -220 70 0 c98 0 143 15 191 64 90 89 82 238 -17 318 -39
31 -131 58 -199 58 l-45 0 0 -220z m185 140 c63 -45 88 -153 53 -227 -21 -44
-78 -82 -129 -86 l-39 -2 -3 174 -2 174 44 -5 c24 -3 59 -16 76 -28z"/>
<path d="M210 1131 c14 -27 13 -31 -9 -31 -10 0 -24 -7 -31 -15 -11 -13 -7
-15 28 -15 35 0 44 -4 56 -27 8 -16 15 -24 16 -20 0 5 -5 17 -10 28 -10 17 -7
19 20 19 44 0 37 17 -10 25 -31 5 -41 12 -46 31 -3 13 -10 24 -15 24 -6 0 -5
-8 1 -19z"/>
<path d="M1285 1114 c-22 -13 -44 -25 -50 -28 -7 -2 -7 -7 0 -14 12 -13 118
44 109 59 -7 12 -13 11 -59 -17z"/>
<path d="M1312 1058 c-35 -20 -50 -34 -44 -40 10 -10 112 39 112 54 0 17 -19
13 -68 -14z"/>
<path d="M110 830 c21 -17 23 -21 10 -30 -8 -5 -18 -10 -22 -10 -5 0 -8 -7 -8
-15 0 -13 5 -12 35 2 34 16 37 16 68 -1 l32 -18 -25 20 -24 20 24 20 c33 27
20 38 -20 17 -29 -15 -34 -15 -55 -1 -34 23 -45 19 -15 -4z"/>
<path d="M1320 830 c0 -6 28 -10 65 -10 37 0 65 4 65 10 0 6 -28 10 -65 10
-37 0 -65 -4 -65 -10z"/>
<path d="M1320 765 c0 -12 14 -15 65 -15 51 0 65 3 65 15 0 12 -14 15 -65 15
-51 0 -65 -3 -65 -15z"/>
<path d="M90 715 c0 -12 14 -15 65 -15 51 0 65 3 65 15 0 12 -14 15 -65 15
-51 0 -65 -3 -65 -15z"/>
<path d="M1325 712 c-15 -16 2 -22 61 -22 45 0 64 4 62 12 -4 11 -113 20 -123
10z"/>
<path d="M159 582 c-25 -15 -44 -33 -42 -39 5 -14 105 38 111 57 6 17 -21 10
-69 -18z"/>
<path d="M198 532 c-27 -15 -48 -33 -48 -39 0 -18 3 -17 60 15 27 15 50 33 50
40 0 17 -9 15 -62 -16z"/>
<path d="M1276 541 c-8 -13 97 -71 108 -60 11 10 13 8 -46 42 -52 30 -54 31
-62 18z"/>
<path d="M223 474 c-41 -25 -55 -44 -32 -44 16 0 99 51 99 61 0 15 -23 9 -67
-17z"/>
<path d="M1230 460 c0 -6 18 -33 40 -61 22 -28 40 -46 40 -41 0 6 -12 25 -26
42 -15 17 -25 33 -23 35 2 2 23 0 46 -4 23 -5 45 -6 48 -3 13 14 1 21 -42 27
-27 4 -56 9 -65 12 -10 2 -18 -1 -18 -7z"/>
<path d="M270 413 c-48 -7 -72 -14 -68 -18 3 -3 26 -1 51 4 26 4 47 6 47 2 -1
-3 -14 -22 -30 -41 -20 -22 -26 -38 -20 -44 5 -5 11 -8 13 -5 2 2 20 25 40 50
20 25 37 49 37 53 0 6 -27 6 -70 -1z"/>
<path d="M366 294 c-28 -50 -31 -64 -17 -64 8 0 71 93 71 105 0 3 -6 5 -14 5
-8 0 -26 -21 -40 -46z"/>
<path d="M435 285 c-8 -14 -22 -36 -30 -50 -18 -30 -19 -35 -2 -35 10 0 67 87
67 104 0 15 -21 4 -35 -19z"/>
<path d="M1041 263 c0 -16 4 -48 9 -73 l9 -45 -4 53 c-2 28 -1 52 4 52 4 0 18
-11 31 -25 13 -14 33 -25 44 -25 17 1 11 9 -29 45 -27 25 -53 45 -57 45 -5 0
-8 -12 -7 -27z"/>
<path d="M480 220 c-25 -22 -40 -40 -34 -40 6 0 21 11 34 25 34 36 41 31 34
-25 -4 -32 -3 -50 4 -50 10 0 14 14 28 93 8 49 -7 48 -66 -3z"/>
<path d="M690 156 c0 -46 4 -66 13 -66 16 0 15 122 -1 128 -8 2 -12 -17 -12
-62z"/>
<path d="M783 203 c-3 -10 -15 -40 -25 -68 -11 -27 -16 -46 -11 -42 4 5 15 27
24 50 l17 42 16 -39 c9 -21 16 -42 16 -47 0 -5 7 -9 16 -9 17 0 14 14 -17 88
-20 46 -27 51 -36 25z"/>
</g>
</svg>
